<?xml version="1.0" standalone="no"?>
<!DOCTYPE svg PUBLIC "-//W3C//DTD SVG 20010904//EN"
 "http://www.w3.org/TR/2001/REC-SVG-20010904/DTD/svg10.dtd">
<svg version="1.0" xmlns="http://www.w3.org/2000/svg"
 width="300.000000pt" height="300.000000pt" viewBox="0 0 300.000000 300.000000"
 preserveAspectRatio="xMidYMid meet">
<metadata>
Created by potrace 1.11, written by Peter Selinger 2001-2013
</metadata>
<g transform="translate(0.000000,300.000000) scale(0.100000,-0.100000)"
fill="#000000" stroke="none">
<path d="M0 1500 l0 -1500 1500 0 1500 0 0 1500 0 1500 -1500 0 -1500 0 0
-1500z m1990 510 l0 -160 -295 0 -295 0 0 -105 0 -105 245 0 245 0 0 -150 0
-150 -245 0 -245 0 0 -115 0 -115 310 0 310 0 0 -155 0 -155 -495 0 -495 0 0
678 c0 373 3 682 7 685 3 4 219 7 480 7 l473 0 0 -160z"/>
</g>
</svg>
